<svg xmlns="http://www.w3.org/2000/svg" version="1.1" xmlns:xlink="http://www.w3.org/1999/xlink" xmlns:svgjs="http://svgjs.dev/svgjs" width="1440" height="560" preserveAspectRatio="none" viewBox="0 0 1440 560"><g mask="url(&quot;#SvgjsMask1000&quot;)" fill="none"><rect width="1440" height="560" x="0" y="0" fill="#0e2a47"></rect><path d="M72.63 61.97a6.6 6.6 0 1 0-12.12-5.23z" fill="#e73635"></path><path d="M1007.7 334.03 a19.67 19.67 0 1 0 39.34 0 a19.67 19.67 0 1 0 -39.34 0z" stroke="#e73635"></path><path d="M571.69 48.53L575.84 48.53L575.84 104.01L571.69 104.01z" fill="#037b0b"></path><path d="M-33.46 75.39a41.02 41.02 0 1 0 75.31 32.54z" fill="#037b0b"></path><path d="M963.5 293.36L988.08 293.36L988.08 308.48L963.5 308.48z" stroke="#d3b714"></path><path d="M475.38 478.66L499.88 478.66L499.88 503.16L475.38 503.16z" fill="#e73635"></path><path d="M1065.2 553.43 a28.84 28.84 0 1 0 57.68 0 a28.84 28.84 0 1 0 -57.68 0z" fill="#037b0b"></path><path d="M1174.11 523.88L1219.72 523.88L1219.72 568.63L1174.11 568.63z" fill="#037b0b"></path><path d="M725.08 542.99 a22.44 22.44 0 1 0 44.88 0 a22.44 22.44 0 1 0 -44.88 0z" stroke="#d3b714"></path><path d="M1423.53 523.54L1429.93 523.54L1429.93 529.94L1423.53 529.94z" fill="#e73635"></path><path d="M776.89 492.47L824.32 492.47L824.32 539.9L776.89 539.9z" fill="#e73635"></path><path d="M716.45 467.5a4.18 4.18 0 1 0-4.4 7.11z" stroke="#d3b714"></path><path d="M106.59 414.97 a4.13 4.13 0 1 0 8.26 0 a4.13 4.13 0 1 0 -8.26 0z" fill="#e73635"></path><path d="M723.91 452.28L762.96 452.28L762.96 491.33L723.91 491.33z" fill="#037b0b"></path><path d="M569.86 116.91 a36.41 36.41 0 1 0 72.82 0 a36.41 36.41 0 1 0 -72.82 0z" fill="#e73635"></path><path d="M292.8 14.29L337.51 14.29L337.51 59L292.8 59z" fill="#d3b714"></path><path d="M903.62 430.82L949.93 430.82L949.93 477.13L903.62 477.13z" fill="#e73635"></path><path d="M1176.04 204.1L1225.36 204.1L1225.36 253.42L1176.04 253.42z" stroke="#d3b714"></path><path d="M107.49 434.53 a17.72 17.72 0 1 0 35.44 0 a17.72 17.72 0 1 0 -35.44 0z" fill="#037b0b"></path><path d="M513.22 69.89a35.11 35.11 0 1 0-8.46-69.71z" fill="#e73635"></path><path d="M1035.23 301.64 a51.93 51.93 0 1 0 103.86 0 a51.93 51.93 0 1 0 -103.86 0z" fill="#e73635"></path><path d="M527.45 95.55L540.75 95.55L540.75 108.85L527.45 108.85z" stroke="#d3b714"></path><path d="M412.46 7.91L439.61 7.91L439.61 18.86L412.46 18.86z" stroke="#e73635"></path><path d="M581.92 176.56a1.65 1.65 0 1 0 2.15 2.52z" fill="#d3b714"></path><path d="M606.66 12.15L628.15 12.15L628.15 33.64L606.66 33.64z" stroke="#037b0b"></path><path d="M907.36 466.18L950.77 466.18L950.77 520.53L907.36 520.53z" fill="#e73635"></path><path d="M764.54 70.83L775.88 70.83L775.88 91.25L764.54 91.25z" stroke="#e73635"></path><path d="M893.4 423.3L917.23 423.3L917.23 455.65L893.4 455.65z" fill="#e73635"></path><path d="M1421.43 347.2a43.6 43.6 0 1 0-67.55 55.14z" stroke="#037b0b"></path><path d="M538.03 421.8a6.29 6.29 0 1 0 10.2 7.36z" stroke="#d3b714"></path><path d="M617.94 67.37a46.8 46.8 0 1 0-55.65-75.26z" fill="#037b0b"></path><path d="M1194.22 1.42 a32.93 32.93 0 1 0 65.86 0 a32.93 32.93 0 1 0 -65.86 0z" fill="#d3b714"></path><path d="M368.58 51.88 a41.25 41.25 0 1 0 82.5 0 a41.25 41.25 0 1 0 -82.5 0z" fill="#037b0b"></path></g><defs><mask id="SvgjsMask1000"><rect width="1440" height="560" fill="#ffffff"></rect></mask></defs></svg>